<svg width="24" height="24" viewBox="0 0 24 24" fill="none" xmlns="http://www.w3.org/2000/svg">
<mask id="mask0_1_450" style="mask-type:luminance" maskUnits="userSpaceOnUse" x="0" y="0" width="24" height="24">
<path d="M24 0H0V24H24V0Z" fill="white"/>
</mask>
<g mask="url(#mask0_1_450)">
<path opacity="0.32" d="M22.1644 6.76602C22.7914 4.52662 23.105 3.40692 22.814 2.63857C22.5603 1.96866 22.0314 1.43977 21.3615 1.18606C20.5931 0.895055 19.4734 1.20858 17.234 1.83561L7.23892 4.63423C3.70183 5.62461 1.9333 6.11981 1.42083 6.96062C0.977601 7.68784 0.935063 8.59066 1.30795 9.35633C1.73909 10.2416 3.45324 10.9009 6.88154 12.2195L8.76039 12.9421C9.37142 13.1771 9.67695 13.2946 9.93394 13.4774C10.1617 13.6393 10.3607 13.8383 10.5227 14.0661C10.7054 14.3231 10.8229 14.6286 11.0579 15.2396L11.7804 17.1183C13.099 20.5467 13.7582 22.2608 14.6435 22.692C15.4092 23.0649 16.312 23.0224 17.0392 22.5791C17.88 22.0667 18.3753 20.2981 19.3657 16.761L22.1644 6.76602Z" fill="url(#paint0_linear_1_450)"/>
<path d="M22.2439 1.75624C21.9962 1.50857 21.6965 1.31291 21.3615 1.18605C20.5932 0.895059 19.4735 1.20857 17.2341 1.83561L7.23902 4.63423C3.70193 5.62461 1.93338 6.1198 1.42092 6.96062C0.977692 7.68783 0.935154 8.59066 1.30804 9.35632C1.71223 10.1863 3.24407 10.8176 6.2588 11.9797C6.45978 12.0572 6.66736 12.1371 6.88163 12.2195L7.99357 12.6471C8.00817 12.6528 8.02269 12.6583 8.03705 12.6639C8.88639 12.9905 9.31814 13.1539 9.74735 13.1631C10.1332 13.1714 10.5157 13.0902 10.8649 12.926C11.2599 12.7402 11.5926 12.4075 12.2579 11.7422L22.2439 1.75624Z" fill="url(#paint1_linear_1_450)"/>
</g>
<defs>
<linearGradient id="paint0_linear_1_450" x1="-1.88819" y1="-8.59579" x2="16.6154" y2="22.9444" gradientUnits="userSpaceOnUse">
<stop offset="0.182482" stop-color="#4CBA67"/>
<stop offset="0.908759" stop-color="#619ED7"/>
</linearGradient>
<linearGradient id="paint1_linear_1_450" x1="-1.7966" y1="-4.2697" x2="5.25604" y2="16.8035" gradientUnits="userSpaceOnUse">
<stop offset="0.182482" stop-color="#4CBA67"/>
<stop offset="0.908759" stop-color="#619ED7"/>
</linearGradient>
</defs>
</svg>
