<svg width="13" height="15" viewBox="0 0 13 15" fill="none" xmlns="http://www.w3.org/2000/svg">
<path d="M0 10.1136V4.88639C0 2.67429 2.81093e-08 1.56825 0.464993 0.944872C0.870301 0.401493 1.49137 0.0587295 2.16896 0.00448557C2.94634 -0.057741 3.8884 0.528463 5.77233 1.70087L9.97217 4.31446C11.6695 5.37079 12.5184 5.89895 12.8093 6.57512C13.0636 7.16565 13.0636 7.83431 12.8093 8.42483C12.5184 9.101 11.6695 9.62916 9.97217 10.6855L5.77233 13.2991C3.8884 14.4715 2.94634 15.0577 2.16896 14.9955C1.49137 14.9412 0.870301 14.5985 0.464993 14.0551C2.81093e-08 13.4317 0 12.3256 0 10.1136Z" fill="white"/>
</svg>
